<svg width="18" height="17" viewBox="0 0 18 17" fill="none" xmlns="http://www.w3.org/2000/svg">
<path d="M9 16.3261C13.4183 16.3261 17 12.7444 17 8.32608C17 3.9078 13.4183 0.32608 9 0.32608C4.58172 0.32608 1 3.9078 1 8.32608C1 12.7444 4.58172 16.3261 9 16.3261Z" fill="#F0F0F0"/>
<path d="M17 8.32609C17 5.1544 15.1542 2.4139 12.4782 1.1199V15.5322C15.1542 14.2383 17 11.4978 17 8.32609Z" fill="#D80027"/>
<path d="M1 8.32609C1 11.4978 2.84578 14.2383 5.52175 15.5323V1.1199C2.84578 2.4139 1 5.1544 1 8.32609Z" fill="#D80027"/>
<path d="M10.3913 9.36956L11.7826 8.6739L11.087 8.32609V7.63043L9.69566 8.32609L10.3913 6.93478H9.69566L9 5.89131L8.30434 6.93478H7.60869L8.30434 8.32609L6.91303 7.63043V8.32609L6.21741 8.6739L7.60869 9.36956L7.26088 10.0652H8.65219V11.1087H9.34781V10.0652H10.7391L10.3913 9.36956Z" fill="#D80027"/>
<circle cx="9" cy="8.32608" r="8.05" stroke="white" stroke-width="0.1"/>
</svg>
