<svg width="24" height="24" viewBox="0 0 24 24" fill="none" xmlns="http://www.w3.org/2000/svg">
<path fill-rule="evenodd" clip-rule="evenodd" d="M4.1 4H20.9C22.0592 4 23 4.9408 23 6.1V18.7C23 19.8592 22.0592 20.8 20.9 20.8H4.1C2.9408 20.8 2 19.8592 2 18.7V6.1C2 4.9408 2.9408 4 4.1 4Z" fill="#8E98A8"/>
<path d="M2 9.25H23M7.775 15.55H5.15M4.1 4H20.9C22.0592 4 23 4.9408 23 6.1V18.7C23 19.8592 22.0592 20.8 20.9 20.8H4.1C2.9408 20.8 2 19.8592 2 18.7V6.1C2 4.9408 2.9408 4 4.1 4Z" stroke="#F7F9FD" stroke-width="1.5" stroke-linecap="round" stroke-linejoin="round"/>
</svg>
