<svg width="18" height="17" viewBox="0 0 18 17" fill="none" xmlns="http://www.w3.org/2000/svg">
<circle cx="9" cy="8.32608" r="8.05" stroke="white" stroke-width="0.1"/>
<path d="M9 16.3261C13.4183 16.3261 17 12.7444 17 8.32608C17 3.9078 13.4183 0.32608 9 0.32608C4.58172 0.32608 1 3.9078 1 8.32608C1 12.7444 4.58172 16.3261 9 16.3261Z" fill="#F0F0F0"/>
<path d="M16.9323 7.28261H10.0435H10.0435V0.393799C9.70191 0.34933 9.35366 0.32608 9 0.32608C8.64634 0.32608 8.29809 0.34933 7.95653 0.393799V7.28255V7.28258H1.06772C1.02325 7.62417 1 7.97236 1 8.32608C1 8.6798 1.02325 9.02799 1.06772 9.36955H7.95647H7.9565V16.2584C8.29809 16.3028 8.64634 16.3261 9 16.3261C9.35366 16.3261 9.70191 16.3029 10.0435 16.2584V9.36961V9.36958H16.9323C16.9768 9.02799 17 8.6798 17 8.32608C17 7.97236 16.9768 7.62417 16.9323 7.28261Z" fill="#D80027"/>
</svg>
