<svg width="28" height="28" viewBox="0 0 28 28" fill="none" xmlns="http://www.w3.org/2000/svg">
<circle cx="14" cy="14" r="14" fill="#3269FC"/>
<path d="M8.71118 19.911V17.4221H11.2M19.911 19.2888H17.4222V16.7999M8.08897 8.71115H10.5778V11.2M19.2888 8.09205V10.5809H16.8M10.5778 8.80262C8.89163 9.91576 7.77786 11.8284 7.77786 14C7.77768 14.3124 7.80097 14.6244 7.84755 14.9333M13.0667 7.84752C13.3756 7.80094 13.6876 7.77765 14 7.77783C16.1715 7.77783 18.0842 8.8916 19.1974 10.5778M20.1524 13.0666C20.199 13.3756 20.2223 13.6876 20.2221 14C20.2221 16.1715 19.1084 18.0842 17.4222 19.1973M14.9333 20.1524C14.6244 20.199 14.3124 20.2223 14 20.2221C11.8285 20.2221 9.91579 19.1083 8.80265 17.4221" stroke="white" stroke-linecap="round" stroke-linejoin="round"/>
</svg>
