<svg width="32" height="32" viewBox="0 0 32 32" fill="none" xmlns="http://www.w3.org/2000/svg">
<rect width="31.0274" height="32" rx="15.5137" fill="#F3EBFF"/>
<path d="M22.7802 12.0194C22.0216 11.3211 21.1422 10.7759 20.1983 10.3793C20.0754 10.5647 19.9353 10.7392 19.7759 10.8987C19.5646 11.1099 19.3276 11.291 19.0689 11.4354C19.3426 11.5259 19.6056 11.6293 19.8578 11.7479C20.1142 11.8686 20.2134 12.1832 20.0711 12.4289C19.9461 12.6466 19.6724 12.7328 19.4461 12.625C17.7263 11.8125 15.806 11.9655 14.9633 12.0927C14.7155 12.1293 14.4784 11.972 14.4203 11.7285V11.7263C14.3534 11.4505 14.5388 11.1767 14.819 11.1336C14.972 11.1099 15.1573 11.0862 15.3642 11.0668C15.3017 11.013 15.2414 10.9569 15.1832 10.8987C14.8858 10.6013 14.6509 10.2543 14.4871 9.8664C14.4698 9.82545 14.4526 9.78235 14.4375 9.7414C14.181 9.7845 13.9267 9.83838 13.6789 9.90088C12.2349 9.06037 10.5022 9.05821 9.47198 9.1595C9.02371 9.20261 8.75862 9.68106 8.95474 10.0862L9.82759 11.875C8.85776 12.7198 8.125 13.7543 7.71336 14.9073L6.64871 14.903C6.29095 14.9009 6 15.1918 6 15.5496V17.9375C6 18.1789 6.13362 18.3987 6.34698 18.5108L7.72845 19.2306C8.30603 20.8233 9.50215 22.1897 11.0797 23.1315V25.2457C11.0797 25.6617 11.4181 26 11.8341 26H13.7694C14.0689 26 14.3405 25.8211 14.4612 25.5474L14.9461 24.4332C15.3642 24.4849 15.7888 24.5108 16.2241 24.5108C16.9095 24.5108 17.5754 24.4462 18.2155 24.3233V25.2457C18.2155 25.6617 18.5539 26 18.9698 26H20.8966C21.1745 26 21.431 25.847 21.5625 25.6013C22.5884 23.6746 23.7026 21.7414 24.5258 19.7242C24.9418 18.7026 25.0926 17.6186 25.0022 16.5604C24.8556 14.8535 24.0797 13.2134 22.7802 12.0194ZM11.2026 16.0302C10.6659 16.0302 10.2328 15.597 10.2328 15.0604C10.2328 14.5237 10.6659 14.0905 11.2026 14.0905C11.7392 14.0905 12.1724 14.5237 12.1724 15.0604C12.1724 15.597 11.7392 16.0302 11.2026 16.0302Z" fill="#9747FF"/>
<path d="M16.5237 11.0216C16.819 11.1379 17.1422 11.2026 17.4806 11.2026C17.6465 11.2026 17.8082 11.1875 17.9633 11.1573C18.6228 11.0345 19.194 10.6616 19.5754 10.1422C19.8922 9.71121 20.0797 9.17888 20.0797 8.60129C20.0819 7.16379 18.9159 6 17.4806 6C16.0431 6 14.8793 7.16379 14.8793 8.60129C14.8793 8.97414 14.9569 9.32759 15.0991 9.64871C15.3728 10.2737 15.8879 10.7694 16.5237 11.0216Z" fill="#2B9F5A"/>
</svg>
