<svg width="18" height="17" viewBox="0 0 18 17" fill="none" xmlns="http://www.w3.org/2000/svg">
<circle cx="9" cy="8.32608" r="8.05" stroke="white" stroke-width="0.1"/>
<path d="M1 8.32609C1 9.30465 1.17603 10.242 1.49759 11.1087L9 11.4565L16.5024 11.1087C16.824 10.242 17 9.30465 17 8.32609C17 7.34752 16.824 6.41015 16.5024 5.54349L9 5.19565L1.49759 5.54346C1.17603 6.41015 1 7.34752 1 8.32609V8.32609Z" fill="#FFDA44"/>
<path d="M9 0.32608C5.56028 0.32608 2.62793 2.49708 1.49759 5.54349H16.5024C15.3721 2.49708 12.4397 0.32608 9 0.32608Z" fill="#D80027"/>
<path d="M16.5024 11.1087H1.49759C2.62793 14.155 5.56028 16.3261 9 16.3261C12.4397 16.3261 15.3721 14.155 16.5024 11.1087Z" fill="#496E2D"/>
<path d="M8.99994 5.54349L9.69056 7.66911H11.9258L10.1176 8.98296L10.8082 11.1087L8.99994 9.79493L7.19166 11.1087L7.88241 8.98296L6.07419 7.66911H8.30931L8.99994 5.54349Z" fill="black"/>
</svg>
