<svg width="24" height="24" viewBox="0 0 24 24" fill="none" xmlns="http://www.w3.org/2000/svg">
<path fill-rule="evenodd" clip-rule="evenodd" d="M12 2L21 9V19C21 20.657 19.657 22 18 22H6C4.343 22 3 20.657 3 19V9L12 2ZM12 9.5C10.07 9.5 8.5 11.07 8.5 13C8.5 14.93 10.07 16.5 12 16.5C13.93 16.5 15.5 14.93 15.5 13C15.5 11.07 13.93 9.5 12 9.5ZM12 10.5C13.378 10.5 14.5 11.622 14.5 13C14.5 14.378 13.378 15.5 12 15.5C10.622 15.5 9.5 14.378 9.5 13C9.5 11.622 10.622 10.5 12 10.5Z" fill="#8E98A8"/>
<path d="M9.9644 10.4548L13.8474 10.2594L14.7472 12.7559L9.39716 12.8695L9.9644 10.4548Z" fill="white"/>
</svg>
