<svg width="18" height="17" viewBox="0 0 18 17" fill="none" xmlns="http://www.w3.org/2000/svg">
<circle cx="9" cy="8.32608" r="8.05" stroke="white" stroke-width="0.1"/>
<path d="M9 16.3261C13.4183 16.3261 17 12.7444 17 8.32608C17 3.9078 13.4183 0.32608 9 0.32608C4.58172 0.32608 1 3.9078 1 8.32608C1 12.7444 4.58172 16.3261 9 16.3261Z" fill="#F0F0F0"/>
<path d="M9.00001 0.32608C5.82832 0.32608 3.08782 2.17186 1.79382 4.84783H16.2062C14.9122 2.17186 12.1717 0.32608 9.00001 0.32608Z" fill="black"/>
<path d="M9.00001 16.3261C5.82832 16.3261 3.08782 14.4803 1.79382 11.8043H16.2062C14.9122 14.4803 12.1717 16.3261 9.00001 16.3261Z" fill="#496E2D"/>
<path d="M16.6222 5.8913H1.37778C1.13272 6.65908 1 7.47705 1 8.32608C1 9.17511 1.13272 9.99308 1.37778 10.7609H16.6222C16.8673 9.99308 17 9.17511 17 8.32608C17 7.47705 16.8673 6.65908 16.6222 5.8913Z" fill="#A2001D"/>
<path d="M11.4911 4.02299L10.5437 3.58571L9 7.08105L7.45632 3.58571L6.50891 4.02299L8.42541 8.32608L6.50891 12.6292L7.45632 13.0665L9 9.57111L10.5437 13.0665L11.4911 12.6292L9.5746 8.32608L11.4911 4.02299Z" fill="#F0F0F0"/>
<path d="M9.64347 4.43513C9.27672 4.0346 9.00001 3.80435 9.00001 3.80435C9.00001 3.80435 8.72329 4.03457 8.35654 4.43513V12.217C8.72329 12.6176 9.00001 12.8478 9.00001 12.8478C9.00001 12.8478 9.27672 12.6176 9.64347 12.217V4.43513Z" fill="#F0F0F0"/>
<path d="M7.26086 5.92742V10.7247C7.64843 11.4114 8.12277 11.9743 8.47827 12.3474V4.30467C8.12277 4.67783 7.6484 5.24073 7.26086 5.92742Z" fill="#A2001D"/>
<path d="M10.7391 5.92744C10.3515 5.24072 9.8772 4.67784 9.5217 4.30469V12.3475C9.87717 11.9743 10.3515 11.4114 10.7391 10.7247V5.92744Z" fill="#A2001D"/>
<path d="M10.7391 5.92743V10.7247C11.1315 10.0294 11.4348 9.20724 11.4348 8.32608C11.4348 7.44493 11.1315 6.62274 10.7391 5.92743Z" fill="black"/>
<path d="M7.26087 5.92743V10.7247C6.86853 10.0294 6.56522 9.20724 6.56522 8.32608C6.56522 7.44493 6.86853 6.62274 7.26087 5.92743Z" fill="black"/>
</svg>
