<svg width="136" height="25" viewBox="0 0 136 25" fill="none" xmlns="http://www.w3.org/2000/svg">
<rect width="136" height="25" fill="#F5F5F5"/>
<rect width="390" height="844" transform="translate(-127 -372)" fill="#F7F9FD"/>
<path d="M32.6889 3.74513C31.7553 3.74513 29.8652 3.76791 29.0226 3.76791V3.74513H25.5612V19.6857H29.0226V15.2451C29.7285 15.2451 32.0969 15.2451 32.6889 15.2451C34.1919 15.2451 39.4979 15.4501 39.4979 9.50653C39.4979 3.76791 34.6018 3.74513 32.6889 3.74513ZM32.8028 12.2392C32.5068 12.2392 29.7969 12.2392 29.0226 12.2392V6.75108C29.9563 6.75108 32.2335 6.75108 32.8711 6.75108C34.0325 6.75108 36.2414 6.75108 36.2414 9.50653C36.2414 12.3758 33.7365 12.2392 32.8028 12.2392ZM50.6059 8.80059C49.7406 7.66197 48.3059 6.91048 45.9376 6.91048C40.5406 6.91048 39.9713 11.4422 39.9713 13.3095C39.9713 15.0174 40.5633 19.6857 45.9148 19.6857C48.3287 19.6857 49.7861 19.0253 50.6515 17.9095H50.7653V19.6857H54.2267V6.91048H50.7653V8.80059H50.6059ZM46.9396 16.7253C43.6376 16.7253 43.2732 14.2204 43.2732 13.3095C43.2732 12.3075 43.6148 9.89366 46.9396 9.89366C49.9228 9.89366 50.5376 11.5788 50.5376 13.3095C50.5376 15.2451 49.9228 16.7253 46.9396 16.7253ZM65.7161 6.93326L62.0269 16.5432L58.3151 6.93326H54.6715L59.5903 19.7085H60.82L58.9527 24.559H62.619L69.3824 6.93326H65.7161ZM75.0965 9.87088H79.241V6.95603H75.0965V3.26692H71.6123V6.95603H69.9272V9.87088H71.6123V14.9947C71.6123 16.8392 71.6123 19.6857 75.0965 19.6857C78.5579 19.6857 79.241 19.458 79.241 19.458V16.0877C75.9163 16.2699 75.0965 16.5204 75.0965 14.6758V14.4026V9.87088ZM87.6241 6.91048C85.4152 6.91048 84.6409 7.57088 83.9122 8.80059H83.7072V6.91048H80.2459V19.6857H83.7072V13.9699C83.7072 12.2392 84.4587 10.2352 87.032 10.2352C88.1251 10.2352 89.0132 10.4174 89.332 10.5085L89.8785 7.25207C89.2865 7.11544 88.535 6.91048 87.6241 6.91048ZM101.142 6.93326L97.453 16.5432L93.7411 6.93326H90.0975L95.0164 19.7085H96.2461L94.3787 24.559H98.0451L104.808 6.93326H101.142ZM113.51 6.91048C111.142 6.91048 109.684 7.66197 108.819 8.80059H108.637V3.24414H105.175V19.6857H108.637V17.9095H108.796C109.661 19.0253 111.119 19.6857 113.51 19.6857C118.884 19.6857 119.476 15.0174 119.476 13.3095C119.476 11.4422 118.907 6.91048 113.51 6.91048ZM112.508 16.7253C109.502 16.7253 108.887 15.2451 108.887 13.3095C108.887 11.5788 109.502 9.89366 112.508 9.89366C115.81 9.89366 116.174 12.3075 116.174 13.3095C116.174 14.2204 115.81 16.7253 112.508 16.7253ZM133.869 14.1065H134.006C134.188 12.3531 133.96 9.66593 131.501 7.98078V8.00356C130.431 7.25207 128.973 6.79662 127.174 6.79662C122.87 6.79662 120.32 9.07385 120.32 13.2412C120.32 17.4996 122.802 19.6857 127.174 19.6857C131.364 19.6857 133.596 18.0006 133.938 15.2451H130.59C130.271 16.0877 129.247 16.657 127.174 16.657C124.943 16.657 123.918 15.8145 123.667 14.1065H133.869ZM127.174 9.82534C129.634 9.82534 130.271 10.8729 130.545 11.8293H123.804C124.214 10.5313 125.261 9.82534 127.174 9.82534Z" fill="#011B33"/>
<path fill-rule="evenodd" clip-rule="evenodd" d="M1.462 0.550751C1.06898 0.550751 0.750366 0.86936 0.750366 1.26239V19.3444C0.750366 19.7374 1.06898 20.056 1.462 20.056H19.2529C19.6459 20.056 19.9645 19.7374 19.9645 19.3444V1.26239C19.9645 0.86936 19.6459 0.550751 19.2529 0.550751H1.462ZM6.62401 4.10892C4.95225 4.10892 3.59703 5.46415 3.59703 7.13591C3.59703 8.80766 4.95225 10.1629 6.62401 10.1629H9.65099V7.13591C9.65099 5.46415 8.29577 4.10892 6.62401 4.10892ZM16.7577 7.13589C16.7577 8.80764 15.4025 10.1629 13.7307 10.1629H10.7037V7.13589C10.7037 5.46413 12.059 4.1089 13.7307 4.1089C15.4025 4.1089 16.7577 5.46413 16.7577 7.13589ZM6.62394 11.4789C4.95218 11.4789 3.59695 12.8342 3.59695 14.5059C3.59695 16.1777 4.95218 17.5329 6.62394 17.5329C8.29569 17.5329 9.65092 16.1777 9.65092 14.5059V11.4789H6.62394Z" fill="#011B33"/>
</svg>
