<svg width="22" height="22" viewBox="0 0 22 22" fill="none" xmlns="http://www.w3.org/2000/svg">
<circle cx="11" cy="11" r="10.05" stroke="white" stroke-width="0.1"/>
<path d="M11 21C16.5228 21 21 16.5228 21 11C21 5.47715 16.5228 1 11 1C5.47715 1 1 5.47715 1 11C1 16.5228 5.47715 21 11 21Z" fill="#F0F0F0"/>
<path d="M1 11C1 15.2997 3.71375 18.9651 7.52176 20.3781V1.62205C3.71375 3.03494 1 6.70041 1 11Z" fill="#6DA544"/>
<path d="M21 11C21 6.70041 18.2862 3.03494 14.4782 1.62205V20.3781C18.2862 18.9651 21 15.2997 21 11Z" fill="#6DA544"/>
</svg>
