<svg width="28" height="28" viewBox="0 0 28 28" fill="none" xmlns="http://www.w3.org/2000/svg">
<rect width="10.5" height="12.1406" transform="translate(9 7.99921)" fill="#F7F9FD"/>
<circle cx="14.25" cy="14.0695" r="13.5392" fill="#5583FD"/>
<path fill-rule="evenodd" clip-rule="evenodd" d="M12.6094 18.4992C12.6094 19.4048 13.3437 20.1398 14.25 20.1398C15.1563 20.1398 15.8906 19.4048 15.8906 18.4992H12.6094ZM9 18.4992H19.5C18.6462 17.293 18.1875 15.8525 18.1875 14.3753V12.593C18.1875 10.7804 16.7182 9.31171 14.9062 9.31171V8.65152C14.9062 8.29058 14.6142 7.99921 14.2539 7.99921C13.8937 7.99921 13.6016 8.29058 13.6016 8.65152V9.31171C11.7851 9.31171 10.3125 10.7837 10.3125 12.6002V14.3753C10.3125 15.8525 9.85378 17.293 9 18.4992Z" stroke="white" stroke-width="1.25" stroke-linecap="round" stroke-linejoin="round"/>
</svg>
