<svg width="79" height="28" viewBox="0 0 79 28" fill="none" xmlns="http://www.w3.org/2000/svg">
<rect width="78.4985" height="27.9992" rx="13.9996" fill="#5583FD"/>
<circle cx="13.4993" cy="13.8743" r="7.38985" fill="white"/>
<path d="M11.1819 17.4996H12.4419V15.2947H13.6493C14.9092 15.2947 15.9067 14.3078 15.9067 13.0898C15.9067 11.8719 14.9092 10.8849 13.6493 10.8849H11.1819V17.4996ZM12.4419 14.0873V12.0924H13.6493C14.1743 12.0924 14.6468 12.5649 14.6468 13.0898C14.6468 13.6148 14.1743 14.0873 13.6493 14.0873H12.4419Z" fill="#011B33"/>
<path d="M26.204 18.3921H27.3589V17.4996C28.3669 17.3001 29.1438 16.5022 29.1438 15.6622C29.1438 13.2578 25.7315 13.8668 25.7315 12.7223C25.7315 12.3549 26.099 11.9874 26.7289 11.9874C27.3589 11.9874 27.7264 12.3444 27.7264 12.9323H28.9338C28.9338 11.8404 28.2514 11.1369 27.3589 10.8849V9.99249H26.204V10.8849C25.154 11.0529 24.4191 11.7774 24.4191 12.7328C24.4191 15.0322 27.8314 14.4023 27.8314 15.6097C27.8314 16.0297 27.4744 16.3972 26.7289 16.3972C26.0465 16.3972 25.6265 15.9877 25.6265 15.3997H24.3666C24.3666 16.5547 25.154 17.3316 26.204 17.4996V18.3921ZM30.1363 17.4996H31.3963V15.2947H32.6037C33.8636 15.2947 34.8611 14.3078 34.8611 13.0898C34.8611 11.8719 33.8636 10.8849 32.6037 10.8849H30.1363V17.4996ZM31.3963 14.0873V12.0924H32.6037C33.1287 12.0924 33.6012 12.5649 33.6012 13.0898C33.6012 13.6148 33.1287 14.0873 32.6037 14.0873H31.3963ZM38.54 17.4996H39.4325V14.5073C39.4325 13.4153 38.6345 12.6174 37.5426 12.6174C36.3351 12.6174 35.6107 13.3628 35.4952 14.2448H36.7026C36.7236 14.1503 36.7656 14.0558 36.8286 13.9823C36.9441 13.8563 37.1121 13.7198 37.4376 13.7198C37.91 13.7198 38.225 14.0243 38.225 14.5598C36.0201 14.5598 35.3377 15.2317 35.3377 16.1872C35.3377 16.9851 35.9151 17.5521 36.9651 17.5521C37.3851 17.5521 37.7211 17.4261 37.9625 17.2896C38.099 17.2161 38.2145 17.1216 38.33 17.0271L38.54 17.4996ZM38.225 15.6097C38.225 16.1977 37.805 16.6071 37.1751 16.6071C36.8076 16.6071 36.5451 16.3447 36.5451 16.0822C36.5451 15.6622 36.8076 15.3997 38.225 15.3997V15.6097ZM40.7933 19.1795L40.9193 19.211C40.9928 19.2215 41.0978 19.232 41.2133 19.232C42.0007 19.232 42.4207 18.8015 42.8932 17.6571C42.9562 17.5416 43.4287 16.2817 43.9011 15.0637L44.8356 12.6699H43.5757L42.4732 15.8197L41.2658 12.6699H40.0058L41.8432 17.2896L41.7382 17.5521C41.5808 17.9196 41.3288 18.1821 40.7933 18.1821V19.1795ZM45.8302 15.8197C45.8302 16.8696 46.5021 17.5521 47.4576 17.5521C47.6151 17.5521 47.7516 17.5311 47.8671 17.4996C47.9301 17.4891 47.9826 17.4681 48.0351 17.4471V16.3972L47.9511 16.4287C47.8986 16.4392 47.8356 16.4497 47.7201 16.4497C47.3001 16.4497 47.0376 16.1872 47.0376 15.7672V13.7723H48.0875V12.6699H47.0376V11.5149H45.9877V12.1974C45.9877 12.5859 45.7987 12.7748 45.4102 12.7748H45.0952V13.7723H45.8302V15.8197ZM49.0821 17.4996H50.2896V14.9272C50.2896 14.2973 50.699 13.8773 51.287 13.8773C51.413 13.8773 51.518 13.8983 51.5915 13.9088L51.707 13.9298V12.6699L51.602 12.6489C51.5285 12.6384 51.455 12.6174 51.3395 12.6174C50.972 12.6174 50.6885 12.7538 50.4891 12.9113C50.3736 12.9953 50.2686 13.0898 50.1846 13.1948L49.9746 12.6699H49.0821V17.4996ZM52.759 19.1795L52.885 19.211C52.9585 19.2215 53.0635 19.232 53.179 19.232C53.9664 19.232 54.3864 18.8015 54.8589 17.6571C54.9219 17.5416 55.3944 16.2817 55.8668 15.0637L56.8013 12.6699H55.5413L54.4389 15.8197L53.2315 12.6699H51.9715L53.8089 17.2896L53.7039 17.5521C53.5464 17.9196 53.2945 18.1821 52.759 18.1821V19.1795ZM57.4284 17.4996H58.3208L58.5308 17.0271C58.6358 17.1216 58.7618 17.2161 58.8983 17.2896C59.1398 17.4261 59.4758 17.5521 59.8958 17.5521C61.1032 17.5521 62.1531 16.5127 62.1531 15.0847C62.1531 13.6568 61.1032 12.6174 59.8958 12.6174C59.4863 12.6174 59.1923 12.7433 58.9718 12.8588C58.8458 12.9323 58.7303 13.0058 58.6358 13.0898V10.8849H57.4284V17.4996ZM59.7383 16.3972C59.0558 16.3972 58.5308 15.8827 58.5308 15.0847C58.5308 14.2868 59.0558 13.7723 59.7383 13.7723C60.4207 13.7723 60.9457 14.2868 60.9457 15.0847C60.9457 15.8827 60.4207 16.3972 59.7383 16.3972ZM66.0921 16.0297C66.0396 16.1032 65.9661 16.1662 65.8821 16.2187C65.7246 16.3132 65.5251 16.3972 65.1996 16.3972C64.5696 16.3972 64.2127 16.0297 64.0972 15.5572H67.457L67.478 15.3997C67.4885 15.3052 67.5095 15.2002 67.5095 15.0847C67.5095 13.6148 66.4596 12.6174 65.1996 12.6174C63.8977 12.6174 62.7847 13.7198 62.7847 15.0847C62.7847 16.4497 63.8977 17.5521 65.1996 17.5521C66.2916 17.5521 67.1 16.7541 67.352 16.0297H66.0921ZM64.0447 14.7172C64.1602 14.1818 64.5696 13.7723 65.1996 13.7723C65.8296 13.7723 66.2391 14.1818 66.3546 14.7172H64.0447Z" fill="white"/>
</svg>
