<svg width="18" height="17" viewBox="0 0 18 17" fill="none" xmlns="http://www.w3.org/2000/svg">
<circle cx="9" cy="8.32608" r="8.05" stroke="white" stroke-width="0.1"/>
<path d="M1 8.32609C1 9.71203 1.35259 11.0156 1.97272 12.1522L9 12.8478L16.0273 12.1522C16.6474 11.0156 17 9.71203 17 8.32609L9 7.63043L1 8.32609Z" fill="#FFDA44"/>
<path d="M16.0273 4.49999C14.6704 2.01324 12.0323 0.32608 9 0.32608C5.96766 0.32608 3.32956 2.01324 1.97272 4.49999C1.35259 5.63658 1 6.94014 1 8.32608H17C17 6.94014 16.6474 5.63658 16.0273 4.49999Z" fill="#338AF3"/>
<path d="M9 16.3261C12.0323 16.3261 14.6704 14.6389 16.0273 12.1522H1.97272C3.32956 14.6389 5.96765 16.3261 9 16.3261Z" fill="#496E2D"/>
<path d="M10.0435 5.00799L11.0205 5.46759L10.5002 6.41384L11.5612 6.2109L11.6956 7.28262L12.4346 6.49437L13.1736 7.28262L13.308 6.2109L14.3689 6.41377L13.8486 5.46755L14.8256 5.00799L13.8486 4.54846L14.3689 3.60221L13.308 3.80515L13.1735 2.73343L12.4346 3.52168L11.6956 2.73343L11.5612 3.80515L10.5002 3.60221L11.0205 4.54849L10.0435 5.00799Z" fill="#FFDA44"/>
</svg>
