<svg width="24" height="24" viewBox="0 0 24 24" fill="none" xmlns="http://www.w3.org/2000/svg">
<path fill-rule="evenodd" clip-rule="evenodd" d="M11.0384 2.53419C11.6372 2.20156 12.3645 2.19846 12.9661 2.52597L19.9563 6.33178C20.5996 6.68202 21 7.35587 21 8.08832V15.8232C21 16.5495 20.6062 17.2188 19.9713 17.5715L12.9616 21.4658C12.3628 21.7984 11.6355 21.8015 11.0339 21.474L4.04366 17.6682C3.40038 17.318 3 16.6441 3 15.9117V8.17681C3 7.45047 3.39378 6.78123 4.02871 6.42849L11.0384 2.53419ZM12 8.5C10.07 8.5 8.5 10.07 8.5 12C8.5 13.93 10.07 15.5 12 15.5C13.93 15.5 15.5 13.93 15.5 12C15.5 10.07 13.93 8.5 12 8.5ZM12 9.5C13.378 9.5 14.5 10.622 14.5 12C14.5 13.378 13.378 14.5 12 14.5C10.622 14.5 9.5 13.378 9.5 12C9.5 10.622 10.622 9.5 12 9.5Z" fill="#8E98A8"/>
</svg>
