<svg width="24" height="24" viewBox="0 0 24 24" fill="none" xmlns="http://www.w3.org/2000/svg">
<path fill-rule="evenodd" clip-rule="evenodd" d="M8.97738 2.47341C9.12537 2.42655 9.28633 2.45582 9.41147 2.54768L11.3699 3.98516C11.4982 4.07936 11.574 4.22904 11.574 4.38823V6.10384C11.574 6.23648 11.6267 6.36368 11.7205 6.45746L13.795 8.53109C13.9649 8.70099 14.2317 8.72593 14.4303 8.59049L16.324 7.29839C16.3833 7.25794 16.4506 7.23072 16.5214 7.2186L20.0578 6.61256C20.2545 6.57884 20.4535 6.66481 20.5569 6.83559C21.47 8.34411 22 10.1087 22 12.001C22 17.523 17.523 22.001 12 22.001C9.14823 22.001 6.57971 20.8033 4.75874 18.8885C4.55522 18.6745 4.59987 18.3328 4.84217 18.1639L7.32843 16.4314C7.42866 16.3616 7.49985 16.2574 7.52856 16.1387L8.48568 12.1803C8.52684 12.0101 8.47592 11.8307 8.35145 11.7075L6.76234 10.1343C6.63529 10.0085 6.58506 9.82447 6.6306 9.65159L7.52601 6.25216C7.55993 6.1234 7.54109 5.98644 7.47367 5.87162L6.4995 4.21265C6.3676 3.98802 6.42955 3.69857 6.64946 3.55894C7.36864 3.10229 8.14928 2.73562 8.97738 2.47341ZM12.5569 10.8474C12.3594 10.835 12.1731 10.9403 12.0819 11.1159L10.5827 14.0012C10.4358 14.284 10.5873 14.6302 10.8948 14.7141L12.9395 15.2719C13.173 15.3356 13.3274 15.5575 13.3059 15.7986L12.9587 19.701C12.9217 20.1177 13.3822 20.393 13.7316 20.163L16.5516 18.3072C16.6591 18.2365 16.7351 18.1271 16.764 18.0017L17.2089 16.0707C17.2286 15.9851 17.2705 15.9062 17.3304 15.8419L18.3397 14.7596C18.5365 14.5485 18.5143 14.2151 18.2913 14.0321L17.5857 13.453C17.5034 13.3854 17.4448 13.2934 17.4185 13.1902L16.98 11.4725C16.9263 11.2624 16.7434 11.1108 16.5269 11.0972L12.5569 10.8474ZM12.6689 12.1549C12.7601 11.9793 12.9464 11.874 13.1439 11.8864L15.738 12.0492C15.9544 12.0628 16.1374 12.2143 16.1911 12.4244L16.5315 13.7554C16.5578 13.8585 16.6163 13.9504 16.6984 14.0179L16.8336 14.1289C17.0565 14.3121 17.0785 14.6454 16.8817 14.8563L16.4165 15.355C16.3566 15.4192 16.3146 15.4981 16.2949 15.5837L15.879 17.3861C15.8501 17.5112 15.7742 17.6204 15.667 17.6911L14.9121 18.1887C14.5627 18.4191 14.1018 18.1438 14.1389 17.7269L14.3769 15.0528C14.3984 14.8116 14.2439 14.5897 14.0103 14.526L12.3541 14.0749C12.0465 13.9911 11.8948 13.6448 12.0418 13.362L12.6689 12.1549ZM5.02796 4.84171C5.25167 4.62384 5.61587 4.68409 5.77414 4.95328L6.40047 6.01851C6.46801 6.13339 6.4869 6.27048 6.45295 6.39934L5.51567 9.95642C5.47009 10.1294 5.52039 10.3135 5.64757 10.4393L7.24632 12.0205C7.37087 12.1437 7.42187 12.3231 7.38076 12.4934L6.64654 15.5345C6.61784 15.6534 6.5466 15.7576 6.44628 15.8275L4.1893 17.3995C3.96231 17.5576 3.64894 17.502 3.50288 17.2671C2.55178 15.7373 2 13.9344 2 12C2 9.19085 3.16335 6.65767 5.02796 4.84171ZM12 2C14.8045 2 17.3381 3.15421 19.1538 5.01337C19.4218 5.28787 19.258 5.73465 18.8798 5.79954L16.2402 6.25246C16.1728 6.26403 16.1085 6.28931 16.0512 6.32675L14.549 7.30877C14.3509 7.43826 14.0891 7.41115 13.9218 7.24381L12.7204 6.04245C12.6267 5.94868 12.574 5.8215 12.574 5.68889V3.88032C12.574 3.72108 12.4981 3.57136 12.3697 3.47716L11.501 2.83988C11.1409 2.57572 11.2838 2.01953 11.7301 2.00458C11.8197 2.00158 11.9096 2 12 2Z" fill="#8E98A8"/>
</svg>
